<svg width="1500" height="200" viewBox="0 0 1500 200" fill="none" xmlns="http://www.w3.org/2000/svg">
<path d="M557.257 130C553.742 130 550.679 129.334 548.069 128.003C545.513 126.671 543.515 124.754 542.077 122.25C540.692 119.694 540 116.684 540 113.222V86.8575C540 83.3422 540.692 80.3329 542.077 77.8296C543.515 75.3262 545.513 73.4088 548.069 72.0772C550.679 70.7457 553.742 70.0799 557.257 70.0799C560.772 70.0799 563.808 70.7723 566.365 72.1571C568.921 73.4887 570.892 75.4061 572.277 77.9095C573.662 80.4128 574.354 83.3955 574.354 86.8575H567.164C567.164 83.5553 566.285 81.0253 564.527 79.2676C562.823 77.4567 560.399 76.5513 557.257 76.5513C554.115 76.5513 551.638 77.4301 549.827 79.1877C548.069 80.9454 547.19 83.4754 547.19 86.7776V113.222C547.19 116.525 548.069 119.081 549.827 120.892C551.638 122.65 554.115 123.529 557.257 123.529C560.399 123.529 562.823 122.65 564.527 120.892C566.285 119.081 567.164 116.525 567.164 113.222H574.354C574.354 116.631 573.662 119.614 572.277 122.17C570.892 124.674 568.921 126.618 566.365 128.003C563.808 129.334 560.772 130 557.257 130Z" fill="#F7DF1E"/>
<path d="M599.889 129.201L584.869 70.8788H592.299L602.206 110.506C602.898 113.276 603.484 115.859 603.963 118.256C604.443 120.599 604.789 122.383 605.002 123.609C605.215 122.383 605.535 120.599 605.961 118.256C606.44 115.859 607.026 113.276 607.718 110.506L617.545 70.8788H624.816L609.716 129.201H599.889Z" fill="#F7DF1E"/>
<path d="M639.964 106.032V99.6405H665.53V106.032H639.964Z" fill="#F7DF1E"/>
<path d="M700.972 130C697.137 130 693.834 129.361 691.065 128.083C688.348 126.804 686.245 124.967 684.753 122.57C683.262 120.173 682.49 117.324 682.436 114.021H689.627C689.627 116.951 690.612 119.268 692.583 120.972C694.607 122.676 697.403 123.529 700.972 123.529C704.327 123.529 706.937 122.703 708.801 121.052C710.719 119.401 711.677 117.111 711.677 114.181C711.677 111.838 711.038 109.787 709.76 108.029C708.535 106.272 706.751 105.047 704.407 104.354L696.498 101.877C692.503 100.652 689.414 98.6019 687.23 95.7257C685.099 92.8495 684.034 89.4674 684.034 85.5792C684.034 82.4368 684.727 79.7204 686.111 77.4301C687.55 75.0866 689.547 73.2756 692.103 71.9973C694.66 70.6658 697.669 70 701.131 70C706.245 70 710.346 71.4381 713.435 74.3142C716.524 77.1372 718.095 80.9188 718.149 85.6591H710.958C710.958 82.783 710.079 80.5459 708.322 78.9481C706.617 77.2969 704.194 76.4714 701.052 76.4714C697.962 76.4714 695.539 77.217 693.781 78.7084C692.077 80.1997 691.225 82.277 691.225 84.9401C691.225 87.3369 691.864 89.4141 693.142 91.1718C694.42 92.9294 696.258 94.1811 698.655 94.9268L706.644 97.4834C710.532 98.7084 713.542 100.786 715.672 103.715C717.802 106.644 718.868 110.08 718.868 114.021C718.868 117.217 718.122 120.013 716.631 122.41C715.139 124.807 713.036 126.671 710.319 128.003C707.656 129.334 704.54 130 700.972 130Z" fill="#F7DF1E"/>
<path d="M748.876 130C745.361 130 742.299 129.334 739.689 128.003C737.132 126.671 735.135 124.754 733.697 122.25C732.312 119.694 731.619 116.684 731.619 113.222V86.8575C731.619 83.3422 732.312 80.3329 733.697 77.8296C735.135 75.3262 737.132 73.4088 739.689 72.0772C742.299 70.7457 745.361 70.0799 748.876 70.0799C752.392 70.0799 755.428 70.7723 757.984 72.1571C760.541 73.4887 762.512 75.4061 763.896 77.9095C765.281 80.4128 765.974 83.3955 765.974 86.8575H758.783C758.783 83.5553 757.904 81.0253 756.147 79.2676C754.442 77.4567 752.019 76.5513 748.876 76.5513C745.734 76.5513 743.257 77.4301 741.446 79.1877C739.689 80.9454 738.81 83.4754 738.81 86.7776V113.222C738.81 116.525 739.689 119.081 741.446 120.892C743.257 122.65 745.734 123.529 748.876 123.529C752.019 123.529 754.442 122.65 756.147 120.892C757.904 119.081 758.783 116.525 758.783 113.222H765.974C765.974 116.631 765.281 119.614 763.896 122.17C762.512 124.674 760.541 126.618 757.984 128.003C755.428 129.334 752.392 130 748.876 130Z" fill="#F7DF1E"/>
<path d="M779.924 129.201V70.8788H787.114V95.8056H805.809V70.8788H813V129.201H805.809V102.357H787.114V129.201H779.924Z" fill="#F7DF1E"/>
<path d="M828.388 129.201V70.8788H861.943V77.4301H835.498V95.486H859.147V101.957H835.498V122.65H861.943V129.201H828.388Z" fill="#F7DF1E"/>
<path d="M874.375 129.201V70.8788H883.803L889.875 89.7337C890.461 91.4381 890.993 93.1425 891.473 94.8469C891.952 96.498 892.298 97.7763 892.511 98.6818C892.778 97.7763 893.124 96.498 893.55 94.8469C893.976 93.1425 894.455 91.4115 894.988 89.6538L900.74 70.8788H910.168V129.201H903.137V108.029C903.137 105.686 903.217 103.023 903.377 100.04C903.537 97.0573 903.75 94.0213 904.016 90.9321C904.282 87.7896 904.548 84.8069 904.815 81.984C905.134 79.1079 905.401 76.6045 905.614 74.474L896.186 103.635H888.596L879.089 74.474C879.355 76.5513 879.622 78.9747 879.888 81.7443C880.154 84.4607 880.394 87.3635 880.607 90.4527C880.82 93.4887 881.007 96.5246 881.166 99.5606C881.326 102.597 881.406 105.419 881.406 108.029V129.201H874.375Z" fill="#F7DF1E"/>
<path d="M920.203 129.201L935.383 70.8788H945.05L960.15 129.201H952.879L949.045 113.702H931.388L927.553 129.201H920.203ZM932.826 107.63H947.527L943.053 89.6538C942.2 86.245 941.535 83.3955 941.055 81.1052C940.576 78.8149 940.283 77.3236 940.176 76.6312C940.07 77.3236 939.777 78.8149 939.298 81.1052C938.818 83.3955 938.152 86.2184 937.3 89.5739L932.826 107.63Z" fill="#F7DF1E"/>
</svg>
