<svg width="512" height="512" viewBox="0 0 512 512" fill="none" xmlns="http://www.w3.org/2000/svg">
<rect width="512" height="512" fill="#F7DF1E"/>
<path d="M195.472 328C187.024 328 179.664 326.4 173.392 323.2C167.248 320 162.448 315.392 158.992 309.376C155.664 303.232 154 296 154 287.68V224.32C154 215.872 155.664 208.64 158.992 202.624C162.448 196.608 167.248 192 173.392 188.8C179.664 185.6 187.024 184 195.472 184C203.92 184 211.216 185.664 217.36 188.992C223.504 192.192 228.24 196.8 231.568 202.816C234.896 208.832 236.56 216 236.56 224.32H219.28C219.28 216.384 217.168 210.304 212.944 206.08C208.848 201.728 203.024 199.552 195.472 199.552C187.92 199.552 181.968 201.664 177.616 205.888C173.392 210.112 171.28 216.192 171.28 224.128V287.68C171.28 295.616 173.392 301.76 177.616 306.112C181.968 310.336 187.92 312.448 195.472 312.448C203.024 312.448 208.848 310.336 212.944 306.112C217.168 301.76 219.28 295.616 219.28 287.68H236.56C236.56 295.872 234.896 303.04 231.568 309.184C228.24 315.2 223.504 319.872 217.36 323.2C211.216 326.4 203.92 328 195.472 328Z" fill="black"/>
<path d="M297.925 326.08L261.829 185.92H279.685L303.493 281.152C305.157 287.808 306.565 294.016 307.717 299.776C308.869 305.408 309.701 309.696 310.213 312.64C310.725 309.696 311.493 305.408 312.517 299.776C313.669 294.016 315.077 287.808 316.741 281.152L340.357 185.92H357.829L321.541 326.08H297.925Z" fill="black"/>
<path d="M53 257.239V246.602C64.5227 246.602 72.4659 244.318 76.8295 239.75C81.2614 235.182 83.4773 227.205 83.4773 215.818V176.136C83.4773 167.409 84.3295 159.841 86.0341 153.432C87.7386 146.955 90.4659 141.636 94.2159 137.477C97.9659 133.25 102.875 130.114 108.943 128.068C115.08 126.023 122.545 125 131.341 125V140.545C123.705 140.545 117.602 141.807 113.034 144.33C108.534 146.784 105.295 150.636 103.318 155.886C101.409 161.136 100.455 167.886 100.455 176.136V221.239C100.455 227.034 99.7727 232.182 98.4091 236.682C97.0455 241.114 94.625 244.864 91.1477 247.932C87.6705 251 82.8295 253.318 76.625 254.886C70.4886 256.455 62.6136 257.239 53 257.239ZM131.341 386.818C122.545 386.818 115.08 385.795 108.943 383.75C102.875 381.705 97.9659 378.568 94.2159 374.341C90.4659 370.182 87.7386 364.864 86.0341 358.386C84.3295 351.977 83.4773 344.409 83.4773 335.682V296C83.4773 284.614 81.2614 276.636 76.8295 272.068C72.4659 267.5 64.5227 265.216 53 265.216V254.58C62.6136 254.58 70.4886 255.364 76.625 256.932C82.8295 258.5 87.6705 260.818 91.1477 263.886C94.625 266.955 97.0455 270.739 98.4091 275.239C99.7727 279.67 100.455 284.784 100.455 290.58V335.682C100.455 343.932 101.409 350.648 103.318 355.83C105.295 361.08 108.534 364.966 113.034 367.489C117.602 370.011 123.705 371.273 131.341 371.273V386.818ZM53 265.216V246.602H76.4205V265.216H53Z" fill="black"/>
<path d="M459.682 254.58V265.216C448.159 265.216 440.182 267.5 435.75 272.068C431.386 276.636 429.205 284.614 429.205 296V335.682C429.205 344.409 428.352 351.977 426.648 358.386C424.943 364.864 422.216 370.182 418.466 374.341C414.716 378.568 409.773 381.705 403.636 383.75C397.568 385.795 390.136 386.818 381.341 386.818V371.273C388.977 371.273 395.045 370.011 399.545 367.489C404.114 364.966 407.352 361.08 409.261 355.83C411.239 350.648 412.227 343.932 412.227 335.682V290.58C412.227 284.784 412.909 279.67 414.273 275.239C415.636 270.739 418.057 266.955 421.534 263.886C425.011 260.818 429.818 258.5 435.955 256.932C442.159 255.364 450.068 254.58 459.682 254.58ZM381.341 125C390.136 125 397.568 126.023 403.636 128.068C409.773 130.114 414.716 133.25 418.466 137.477C422.216 141.636 424.943 146.955 426.648 153.432C428.352 159.841 429.205 167.409 429.205 176.136V215.818C429.205 227.205 431.386 235.182 435.75 239.75C440.182 244.318 448.159 246.602 459.682 246.602V257.239C450.068 257.239 442.159 256.455 435.955 254.886C429.818 253.318 425.011 251 421.534 247.932C418.057 244.864 415.636 241.114 414.273 236.682C412.909 232.182 412.227 227.034 412.227 221.239V176.136C412.227 167.886 411.239 161.136 409.261 155.886C407.352 150.636 404.114 146.784 399.545 144.33C395.045 141.807 388.977 140.545 381.341 140.545V125ZM459.682 246.602V265.216H436.261V246.602H459.682Z" fill="black"/>
</svg>
